<?xml version="1.0" encoding="utf-8"?>
<!-- Generator: Adobe Illustrator 19.2.1, SVG Export Plug-In . SVG Version: 6.00 Build 0)  -->
<svg version="1.2" baseProfile="tiny"
	 id="svg2" inkscape:version="0.48.3.1 r9886" sodipodi:docname="noun_project_10759.svg" xmlns:cc="http://creativecommons.org/ns#" xmlns:dc="http://purl.org/dc/elements/1.1/" xmlns:inkscape="http://www.inkscape.org/namespaces/inkscape" xmlns:rdf="http://www.w3.org/1999/02/22-rdf-syntax-ns#" xmlns:sodipodi="http://sodipodi.sourceforge.net/DTD/sodipodi-0.dtd" xmlns:svg="http://www.w3.org/2000/svg"
	 xmlns="http://www.w3.org/2000/svg" xmlns:xlink="http://www.w3.org/1999/xlink" x="0px" y="0px" viewBox="0 0 16 16"
	 xml:space="preserve">
<sodipodi:namedview  bordercolor="#666666" borderopacity="1" fit-margin-bottom="0" fit-margin-left="0" fit-margin-right="0" fit-margin-top="0" gridtolerance="10" guidetolerance="10" id="namedview10" inkscape:current-layer="svg2" inkscape:cx="36" inkscape:cy="36" inkscape:pageopacity="0" inkscape:pageshadow="2" inkscape:window-height="480" inkscape:window-maximized="0" inkscape:window-width="640" inkscape:window-x="35" inkscape:window-y="0" inkscape:zoom="2.36" objecttolerance="10" pagecolor="#ffffff" showgrid="false">
	</sodipodi:namedview>
<g id="Calque_1" transform="translate(-14,-14)">
	<g id="polygon5_2_">
		<path d="M20.2,28c-0.3,0-0.6-0.1-0.9-0.2l-0.1-0.1l-3.7-3.3c-0.3-0.2-0.5-0.6-0.6-1c-0.1-0.4,0.1-0.9,0.3-1.2l0.9-1
			c0.3-0.3,0.7-0.6,1.2-0.6c0.4,0,0.7,0.1,1,0.3l1.6,1.4l5.1-5.8c0.3-0.4,0.7-0.6,1.2-0.6c0.4,0,0.7,0.1,1,0.3l1,0.9
			c0.3,0.2,0.5,0.6,0.6,1c0.1,0.4-0.1,0.9-0.3,1.2l-7.1,7.9C21.4,27.6,20.9,28,20.2,28L20.2,28z"/>
		<path fill="#FFFFFF" d="M26.4,17c0.1,0,0.3,0,0.4,0.1l1,0.9c0.3,0.2,0.3,0.6,0.1,0.9l-7,7.9c-0.2,0.2-0.4,0.3-0.6,0.3
			c-0.1,0-0.3,0-0.4-0.1l-3.6-3.2c-0.3-0.2-0.3-0.6-0.1-0.9l0.9-1c0.1-0.2,0.3-0.2,0.5-0.2c0.1,0,0.3,0,0.4,0.1l2.3,2l5.7-6.5
			C26,17.1,26.2,17,26.4,17 M26.4,15C26.4,15,26.4,15,26.4,15c-0.8,0-1.5,0.3-2,0.9l-4.4,5l-0.8-0.7l0,0l0,0c-0.5-0.4-1-0.6-1.6-0.6
			c-0.8,0-1.5,0.3-2,0.9l-0.9,1l0,0l0,0.1c-0.4,0.6-0.6,1.2-0.5,1.9c0.1,0.7,0.4,1.3,0.9,1.7l3.5,3.2l0.2,0.2l0.2,0.1
			c0.4,0.2,0.9,0.4,1.4,0.4c0.7,0,1.4-0.3,2-0.9l0.1-0.1l0.1-0.1l7-7.9l0,0l0-0.1c0.4-0.6,0.6-1.2,0.5-1.9c-0.1-0.7-0.4-1.3-0.9-1.7
			l-1-0.9l0,0l-0.1,0C27.5,15.2,27,15,26.4,15L26.4,15L26.4,15z"/>
	</g>
</g>
</svg>
